<?xml version="1.0" encoding="UTF-8"?>
<svg width="100pt" height="100pt" version="1.1" viewBox="0 0 100 100" xmlns="http://www.w3.org/2000/svg">
 <path d="m90 31.082v-3.1328c0-3.668-2.9844-6.6523-6.6523-6.6523l-66.695 0.003906c-3.668 0-6.6523 2.9844-6.6523 6.6484v44.098c0 3.6641 2.9844 6.6484 6.6523 6.6484h66.699c3.6641 0.003907 6.6484-2.9805 6.6484-6.6445zm-76.668-3.1328c0-1.8281 1.4883-3.3164 3.3164-3.3164h66.699c1.832 0 3.3203 1.4883 3.3203 3.3164v2.0859l-35.219 16.957c-0.91016 0.43359-1.9922 0.43359-2.8945 0.003906l-35.223-16.957zm70.016 47.418h-66.695c-1.832 0-3.3203-1.4883-3.3203-3.3164v-38.312l23.031 11.09-17.754 20.848c-0.59766 0.70312-0.51172 1.7539 0.1875 2.3516 0.3125 0.26562 0.69922 0.39844 1.082 0.39844 0.46875 0 0.9375-0.19922 1.2695-0.58594l18.324-21.516 7.6445 3.6797c0.91797 0.4375 1.8984 0.65234 2.8789 0.65234 0.98828 0 1.9727-0.21875 2.8906-0.65625l7.6523-3.6836 18.328 21.52c0.33203 0.38672 0.80078 0.58594 1.2695 0.58594 0.38281 0 0.76562-0.12891 1.082-0.39844 0.69922-0.59766 0.78516-1.6484 0.1875-2.3516l-17.758-20.852 23.02-11.082v38.312c0 1.8281-1.4883 3.3164-3.3203 3.3164z"/>
</svg>
