<?xml version="1.0" encoding="UTF-8"?>
<svg width="80pt" height="60pt" version="1.1" viewBox="0 0 100 100" xmlns="http://www.w3.org/2000/svg">
 <path d="m93.344 72.484-0.42188-0.28125c-1.4531-1-8.0781-5.3125-12.5-8.1562-1.8125-1.1875-3.2656-2.125-3.8125-2.5-4.0625-2.5977-9.4492-1.5781-12.281 2.3281l-0.51562 0.64062c-1.6562 2.0781-3.3594 4.2344-6.1719 4.3906-3.8594 0.23438-9.375-3.2188-16.375-10.234s-10.453-12.5-10.219-16.359c0.15625-2.8125 2.3125-4.5156 4.3906-6.1719l0.64062-0.51562c3.9062-2.832 4.9258-8.2188 2.3281-12.281-0.35938-0.53125-1.2812-1.9375-2.4375-3.7188-2.875-4.4062-7.2188-11.078-8.2188-12.5l-0.28125-0.42188c-1.4375-2.1406-3.8594-5.7344-8.9219-5-3.5625 0.46875-16.984 7.4531-16.984 22.609 0 13.188 9.7031 30.562 26.641 47.562s34.297 26.562 47.484 26.562c15.141 0 22.141-13.422 22.656-17.031 0.73438-5.0625-2.8594-7.4844-5-8.9219zm1.9688 8.4844c-0.48438 2.9219-6.7031 14.344-19.625 14.344-12.422 0-28.922-9.375-45.312-25.719s-25.688-32.859-25.688-45.281c0-12.922 11.422-19.141 14.344-19.625 0.28516-0.023438 0.57422-0.023438 0.85938 0 2.3281 0 3.5469 1.5625 5.1094 3.7188l0.29688 0.4375c0.98438 1.4375 5.3125 8.0938 8.1875 12.5 1.1562 1.7812 2.0781 3.125 2.4219 3.7344 1.7148 2.7227 0.98047 6.3164-1.6719 8.1406l-0.625 0.48438c-2.3594 1.7812-5.4062 4.2188-5.6406 8.4844-0.28125 4.9062 3.2656 10.938 11.141 18.75s13.844 11.406 18.75 11.141c4.2188-0.23438 6.6562-3.3125 8.4531-5.5625l0.48438-0.625c1.8164-2.7031 5.457-3.4688 8.2031-1.7188l3.8281 2.5c4.3594 2.8281 10.938 7.125 12.391 8.1094l0.4375 0.29688c2.3438 1.625 4.0156 3.0469 3.6562 5.8906z"/>
</svg>
